<?xml version="1.0" standalone="no"?><!DOCTYPE svg PUBLIC "-//W3C//DTD SVG 1.1//EN" "http://www.w3.org/Graphics/SVG/1.1/DTD/svg11.dtd"><svg t="1536303907037" class="icon" style="" viewBox="0 0 1024 1024" version="1.1" xmlns="http://www.w3.org/2000/svg" p-id="7817" xmlns:xlink="http://www.w3.org/1999/xlink" width="32" height="32"><defs><style type="text/css"></style></defs><path d="M67.441 455.123c3.246-12.515 8.915-23.492 19.508-31.495 12.359-9.337 26.313-11.778 41.383-10.296 2.525 0.248 5.625-0.348 7.74-1.687 28.31-17.925 56.538-35.98 84.624-54.25 2.384-1.55 4.43-4.634 5.249-7.414 7.233-24.556 30.292-39.859 56.695-37.289 24.044 2.341 43.535 21.936 45.337 46.401 0.452 6.147-0.806 12.551-2.156 18.644-0.694 3.129-0.596 4.643 2.271 6.239 22.8 12.693 45.503 25.563 68.343 38.185 1.469 0.811 4.322 0.753 5.697-0.158 12.253-8.127 25.688-10.025 39.991-8.679 2.122 0.199 5.065-0.906 6.551-2.448 28.729-29.802 57.351-59.709 85.791-89.789 2.121-2.242 3.668-5.88 3.852-8.968 1.561-26.18 22.258-47.573 47.997-49.16 28.556-1.761 51.442 15.343 56.668 42.207 0.389 2.001 1.297 4.341 2.755 5.628 23.505 20.747 47.139 41.35 70.868 62.092 11.114-7.528 23.132-10.21 36.181-9.575 2.355 0.115 5.511-2.116 7.181-4.17 26.381-32.436 52.58-65.019 78.816-97.571 5.876-7.29 11.849-14.505 17.512-21.959 1.042-1.371 1.672-4.105 1.024-5.557-14.666-32.928 7.799-64.806 37.449-69.539 0.585-0.093 1.097-0.637 1.644-0.97h16.998c7.608 3.441 15.683 6.131 22.721 10.495 11.459 7.104 16.851 18.779 20.428 31.346v15.69c-3.121 9.754-6.81 19.193-14.478 26.463-10.954 10.389-23.993 15.268-39.062 15.439-2.543 0.028-5.9 1.463-7.471 3.394a19359.582 19359.582 0 0 0-97.571 121.01c-1.524 1.908-2.513 5.71-1.683 7.813 13.195 33.416-14.19 68.919-51.453 67.071-26.426-1.311-48.226-22.232-49.148-46.857-0.085-2.256-1.606-5.028-3.343-6.567-21.833-19.35-43.828-38.516-66.13-58.033-20.387 14.936-41.832 16.465-64.475 4.134-13.895 14.476-27.763 28.896-41.596 43.349-12.199 12.747-24.449 25.449-36.42 38.407-1.5 1.624-2.662 5.194-1.916 7.018 14.053 34.325-13.625 69.862-51.373 68.126-26.399-1.213-45.424-18.356-50.018-44.699-0.468-2.683-2.617-5.961-4.943-7.294-27.167-15.559-54.506-30.817-81.846-46.072-1.817-1.015-4.014-1.913-6.036-1.918-30.325-0.071-30.325-0.034-52.353-17.595l-69.697 44.615c8.565 19.111 8.144 37.2-5.088 53.639-13.257 16.472-31.186 22.14-51.397 18.36-20.44-3.821-34.083-16.421-40.21-36.631-0.357-1.18-0.937-2.292-1.412-3.437l0.001-15.688z" p-id="7818" fill="#4E5B85"></path><path d="M853.264 860.455c-0.179-2.59-0.515-5.182-0.515-7.771-0.024-160.115-0.021-320.229-0.021-480.343v-8.744h103.831v496.859l-103.295-0.001zM538.15 860.455c0.103-2.822 0.295-5.646 0.295-8.467 0.016-126.752 0.014-253.502 0.014-380.25v-8.814h105.386v8.802c0 126.75-0.001 253.5 0.009 380.25 0 2.826 0.135 5.654 0.206 8.48l-105.91-0.001zM224.345 860.455v-298.42h103.806c0.122 2.76 0.348 5.479 0.348 8.199 0.019 93.922 0.012 187.846 0.034 281.77 0 2.818 0.27 5.635 0.414 8.451H224.345zM695.053 860.455c0.145-2.814 0.414-5.631 0.415-8.445 0.022-77.752 0.075-155.504-0.097-233.254-0.014-5.766 1.191-7.855 7.466-7.785 29.834 0.344 59.674 0.148 89.511 0.166 2.137 0.002 4.272 0.18 7.308 0.316v249.002H695.053zM379.939 860.455c0.072-32.672 0.171-65.346 0.208-98.018 0.035-31.152 0.008-62.305 0.008-93.457v-7.715h105.386v7.727c0 61.215-0.004 122.43 0.014 183.646 0 2.605 0.191 5.211 0.295 7.816l-105.911 0.001zM67.441 660.404l95.358 0.273c2.551 0.006 5.102 0.002 7.941 0.002 0.223 2.445 0.509 4.133 0.51 5.822 0.022 63.15 0.021 126.301-0.005 189.451 0 1.5-0.333 3.002-0.51 4.502H67.44l0.001-200.05z" p-id="7819" fill="#4E5B85"></path></svg>