<?xml version="1.0" standalone="no"?><!DOCTYPE svg PUBLIC "-//W3C//DTD SVG 1.1//EN" "http://www.w3.org/Graphics/SVG/1.1/DTD/svg11.dtd"><svg t="1536303953947" class="icon" style="" viewBox="0 0 1064 1024" version="1.1" xmlns="http://www.w3.org/2000/svg" p-id="12833" xmlns:xlink="http://www.w3.org/1999/xlink" width="33.25" height="32"><defs><style type="text/css"></style></defs><path d="M403.535 510.895c0-36.704 12.394-67.21 37.657-92.474 25.265-25.264 55.772-37.659 92.476-37.659 36.703 0 67.211 12.395 92.475 37.659 25.265 25.264 37.658 55.77 37.658 92.474 0 36.705-12.394 67.69-37.658 92.953-25.264 25.263-55.772 37.656-92.475 37.656-36.704 0-67.331-12.274-92.476-37.656-25.382-25.622-37.657-56.725-37.657-92.953z m-183.987 84.849c7.626 27.17 19.068 53.865 32.89 78.651l-85.801 105.347 97.24 97.241 105.336-85.802c24.788 13.824 51.96 25.264 79.129 33.368l14.3 134.422h140.143l14.3-134.422c27.17-8.104 52.912-19.544 79.127-33.368l104.87 85.802 98.196-97.24L813 674.394c13.346-24.786 25.263-51.48 33.365-78.651l134.424-14.778V440.824l-134.424-14.3c-8.102-27.171-20.019-52.435-33.365-78.652l86.278-105.346-98.196-98.195-104.87 86.278c-26.692-13.348-51.956-25.264-79.127-33.367l-14.3-134.424H462.644l-14.3 134.424c-28.124 8.103-54.34 20.02-79.129 33.367L263.88 144.33l-97.241 98.195 85.802 105.346c-13.348 26.218-24.788 51.48-32.891 78.652l-134.901 14.3v140.142l134.9 14.778z m802.235 256.929" p-id="12834" fill="#4E5B85"></path></svg>