<svg width="2.48rem" height="2.48rem" viewBox="0 0 24 24" version="1.1" xmlns="http://www.w3.org/2000/svg" xmlns:xlink="http://www.w3.org/1999/xlink"><defs><linearGradient x1="50%" y1="0%" x2="50%" y2="100%" id="linearGradient-1"><stop stop-color="#BBC6D0" stop-opacity="0.606506774" offset="0%"></stop> <stop stop-color="#BBC6D0" offset="100%"></stop></linearGradient> <linearGradient x1="50%" y1="0%" x2="50%" y2="100%" id="linearGradient-2"><stop stop-color="#1890FF" stop-opacity="0.797312063" offset="0%"></stop> <stop stop-color="#1890FF" offset="100%"></stop></linearGradient></defs> <g id="资讯1" stroke="none" stroke-width="1" fill="none" fill-rule="evenodd"><g id="资讯_快讯1" transform="translate(-26.000000, -1079.000000)" fill="url(#linearGradient-1)" fill-rule="nonzero"><g id="tab-bar_discover" transform="translate(0.000000, 1072.000000)"><g id="tab_ic_market_norl" transform="translate(26.000000, 7.000000)"><g id="Combined-Shape"><path d="M4.5,8 C5.74264069,8 6.75,9.00735931 6.75,10.25 L6.75,19.75 C6.75,20.9926407 5.74264069,22 4.5,22 C3.25735931,22 2.25,20.9926407 2.25,19.75 L2.25,10.25 C2.25,9.00735931 3.25735931,8 4.5,8 Z M12,2 C13.2426407,2 14.25,3.00735931 14.25,4.25 L14.25,19.75 C14.25,20.9926407 13.2426407,22 12,22 C10.7573593,22 9.75,20.9926407 9.75,19.75 L9.75,4.25 C9.75,3.00735931 10.7573593,2 12,2 Z M19.5,12 C20.7426407,12 21.75,13.0073593 21.75,14.25 L21.75,19.75 C21.75,20.9926407 20.7426407,22 19.5,22 C18.2573593,22 17.25,20.9926407 17.25,19.75 L17.25,14.25 C17.25,13.0073593 18.2573593,12 19.5,12 Z"></path></g></g></g></g></g></svg>