<svg width="2.48rem" height="2.48rem" viewBox="0 0 24 24" version="1.1" xmlns="http://www.w3.org/2000/svg" xmlns:xlink="http://www.w3.org/1999/xlink"><defs><linearGradient x1="50%" y1="0%" x2="50%" y2="100%" id="linearGradient-1"><stop stop-color="#BBC6D0" stop-opacity="0.606506774" offset="0%"></stop> <stop stop-color="#BBC6D0" offset="100%"></stop></linearGradient> <linearGradient x1="50%" y1="0%" x2="50%" y2="100%" id="linearGradient-2"><stop stop-color="#1890FF" stop-opacity="0.797312063" offset="0%"></stop> <stop stop-color="#1890FF" offset="100%"></stop></linearGradient></defs><g id="资讯5" stroke="none" stroke-width="1" fill="none" fill-rule="evenodd"><g id="资讯_快讯5" transform="translate(-325.000000, -1079.000000)" fill-rule="nonzero"><g id="tab-bar_discover" transform="translate(0.000000, 1072.000000)"><g id="tab_ic_my_norl" transform="translate(325.000000, 7.000000)"><path d="M22,20.75 C22,21.440371 21.4403438,22.0000272 20.7499728,22.0000272 L3.25,22 C2.55963918,22 1.99999116,21.440352 2,20.7499912 C2,20.3426578 2,19.9383725 2,19.5371353 C2,18.3242706 5.75,14.5 12,14.5 C18.25,14.5 22,18.3242706 22,19.5371353 C22,19.9383754 22,20.3426636 22,20.75 Z M12,12 C9.23857625,12 7,9.76142375 7,7 C7,4.23857625 9.23857625,2 12,2 C14.7614237,2 17,4.23857625 17,7 C17,9.76142375 14.7614237,12 12,12 Z" id="Combined-Shape" fill="url(#linearGradient-2)" fill-rule="nonzero"></path> <rect id="Rectangle" x="2" y="2" width="20" height="20"></rect></g></g></g></g></svg>