<svg width="2.48rem" height="2.48rem" viewBox="0 0 24 24" version="1.1" xmlns="http://www.w3.org/2000/svg" xmlns:xlink="http://www.w3.org/1999/xlink"><defs><linearGradient x1="50%" y1="0%" x2="50%" y2="100%" id="linearGradient-1"><stop stop-color="#BBC6D0" stop-opacity="0.606506774" offset="0%"></stop> <stop stop-color="#BBC6D0" offset="100%"></stop></linearGradient> <linearGradient x1="50%" y1="0%" x2="50%" y2="100%" id="linearGradient-2"><stop stop-color="#1890FF" stop-opacity="0.797312063" offset="0%"></stop> <stop stop-color="#1890FF" offset="100%"></stop></linearGradient></defs><g id="资讯3" stroke="none" stroke-width="1" fill="none" fill-rule="evenodd"><g id="资讯_快讯3" transform="translate(-176.000000, -1079.000000)" fill-rule="nonzero"><g id="tab-bar_discover" transform="translate(0.000000, 1072.000000)"><g id="tab_ic_news_pressed" transform="translate(176.000000, 7.000000)"><g id="news" transform="translate(2.500000, 2.000000)"><path d="M2.29996057,0.00018718475 L16.7001355,0.000179657289 C17.694248,0.000179657289 18.5001355,0.806067108 18.5001355,1.80017966 C18.5001355,1.80018217 18.5001355,1.80018468 18.5001355,1.80018718 L18.500056,19.002909 C18.5000541,19.4447368 18.1418804,19.8029075 17.7000526,19.8029056 C17.6416842,19.8029054 17.5834911,19.7965173 17.5265126,19.7838555 L9.93386103,18.0966093 C9.64810568,18.0331085 9.3518944,18.0331088 9.06613921,18.0966104 L1.47359243,19.7838527 C1.04228597,19.8796991 0.614944108,19.607755 0.519097677,19.1764485 C0.506435597,19.1194695 0.50004738,19.0612758 0.500047114,19.0029069 L0.499960567,1.80018718 C0.499956039,0.806074635 1.30583982,0.000183514388 2.29995237,0.000178986721 C2.2999551,0.000178986709 2.29995783,0.000178986702 2.29996057,0.000178986702 Z" id="矩形" fill="url(#linearGradient-2)"></path> <path d="M5.4,5.5 L13.6,5.5 C14.0970563,5.5 14.5,5.90294373 14.5,6.4 C14.5,6.89705627 14.0970563,7.3 13.6,7.3 L5.4,7.3 C4.90294373,7.3 4.5,6.89705627 4.5,6.4 C4.5,5.90294373 4.90294373,5.5 5.4,5.5 Z M5.4,9.8 L10.6,9.8 C11.0970563,9.8 11.5,10.2029437 11.5,10.7 C11.5,11.1970563 11.0970563,11.6 10.6,11.6 L5.4,11.6 C4.90294373,11.6 4.5,11.1970563 4.5,10.7 C4.5,10.2029437 4.90294373,9.8 5.4,9.8 Z" id="形状结合" fill="#FFFFFF"></path></g></g></g></g></g></svg>